ffmpeg started on 2025-06-27 at 10:28:08
Report written to "D:\Convert\FFMetrics\reports\ssim_report-6.txt"
Log level: 32
Command line:
ffmpeg -hide_banner -nostdin -i "G:\\\xc0\xed\xe8\xec\xe5\\[\xd2\xee\xef-4]\\\xd2\xee\xea\xe8\xe9\xf1\xea\xe8\xe9 \xc3\xf3\xeb\xfc\\\xd2\xc2-4\\Tokyo_Ghoul_Re_[19]_[AniLibria_TV]_[HDTVRip_720p]_HEVC.mkv" -i "G:\\\xc0\xed\xe8\xec\xe5\\[\xd2\xee\xef-4]\\\xd2\xee\xea\xe8\xe9\xf1\xea\xe8\xe9 \xc3\xf3\xeb\xfc\\\xd2\xc2-4\\Tokyo_Ghoul_Re_[19]_[AniLibria_TV]_[HDTVRip_720p].mkv" -lavfi "[0:v]settb=AVTB,setpts=PTS-STARTPTS,format=pix_fmts=yuv420p10,fps=24000/1001,scale=1280:720:flags=bicubic[main];[1:v]settb=AVTB,setpts=PTS-STARTPTS,format=pix_fmts=yuv420p,fps=24000/1001,scale=1280:720:flags=bicubic[ref];[main][ref]ssim=eof_action=endall:stats_file='D\\:/Convert/FFMetrics/logs/ssim_logfile-6.txt'" -f null -
Input #0, matroska,webm, from 'G:\Аниме\[Топ-4]\Токийский Гуль\ТВ-4\Tokyo_Ghoul_Re_[19]_[AniLibria_TV]_[HDTVRip_720p]_HEVC.mkv':
  Metadata:
    ENCODER         : Lavf61.7.100
  Duration: 00:24:30.10, start: -0.021000, bitrate: 615 kb/s
  Stream #0:0(jpn): Video: hevc (Main 10), yuv420p10le(tv, bt709, progressive), 1280x720 [SAR 1:1 DAR 16:9], 23.98 fps, 23.98 tbr, 1k tbn (default)
      Metadata:
        ENCODER         : Lavc61.19.100 libx265
        BPS             : 417475
        DURATION        : 00:24:30.010708333
        NUMBER_OF_FRAMES: 35245
        NUMBER_OF_BYTES : 76711634
        _STATISTICS_WRITING_APP: mkvpropedit v66.0.0 ('Josie') 64-bit
        _STATISTICS_WRITING_DATE_UTC: 2025-06-26 16:04:08
        _STATISTICS_TAGS: BPS DURATION NUMBER_OF_FRAMES NUMBER_OF_BYTES
  Stream #0:1(rus): Audio: aac (LC), 48000 Hz, stereo, fltp (default) (forced)
      Metadata:
        title           : AniLibria.TV
        ENCODER         : Lavc61.19.100 aac
        BPS             : 193561
        DURATION        : 00:24:30.079000000
        NUMBER_OF_FRAMES: 68911
        NUMBER_OF_BYTES : 35568765
        _STATISTICS_WRITING_APP: mkvpropedit v66.0.0 ('Josie') 64-bit
        _STATISTICS_WRITING_DATE_UTC: 2025-06-26 16:04:08
        _STATISTICS_TAGS: BPS DURATION NUMBER_OF_FRAMES NUMBER_OF_BYTES
  Stream #0:2(rus): Subtitle: ass (ssa) (default) (forced)
      Metadata:
        title           : Надписи
        BPS             : 17
        DURATION        : 00:21:55.570000000
        NUMBER_OF_FRAMES: 19
        NUMBER_OF_BYTES : 2807
        _STATISTICS_WRITING_APP: mkvpropedit v66.0.0 ('Josie') 64-bit
        _STATISTICS_WRITING_DATE_UTC: 2025-06-26 16:04:08
        _STATISTICS_TAGS: BPS DURATION NUMBER_OF_FRAMES NUMBER_OF_BYTES
  Stream #0:3(rus): Subtitle: ass (ssa)
      Metadata:
        title           : Полные
        BPS             : 100
        DURATION        : 00:24:10.880000000
        NUMBER_OF_FRAMES: 261
        NUMBER_OF_BYTES : 18310
        _STATISTICS_WRITING_APP: mkvpropedit v66.0.0 ('Josie') 64-bit
        _STATISTICS_WRITING_DATE_UTC: 2025-06-26 16:04:08
        _STATISTICS_TAGS: BPS DURATION NUMBER_OF_FRAMES NUMBER_OF_BYTES
[matroska,webm @ 0000017d6f7e7740] Could not find codec parameters for stream 18 (Attachment: none): unknown codec
Consider increasing the value for the 'analyzeduration' (0) and 'probesize' (5000000) options
Input #1, matroska,webm, from 'G:\Аниме\[Топ-4]\Токийский Гуль\ТВ-4\Tokyo_Ghoul_Re_[19]_[AniLibria_TV]_[HDTVRip_720p].mkv':
  Metadata:
    encoder         : libebml v1.4.2 + libmatroska v1.6.4
    creation_time   : 2024-12-27T09:49:39.000000Z
  Duration: 00:24:30.08, start: 0.000000, bitrate: 1771 kb/s
  Stream #1:0(jpn): Video: h264 (Main), yuv420p(tv, bt709, progressive), 1280x720, SAR 1:1 DAR 16:9, 23.98 fps, 23.98 tbr, 1k tbn (default)
      Metadata:
        BPS             : 1565061
        DURATION        : 00:24:30.011000000
        NUMBER_OF_FRAMES: 35245
        NUMBER_OF_BYTES : 287582245
        _STATISTICS_WRITING_APP: mkvmerge v66.0.0 ('Josie') 64-bit
        _STATISTICS_WRITING_DATE_UTC: 2024-12-27 09:49:39
        _STATISTICS_TAGS: BPS DURATION NUMBER_OF_FRAMES NUMBER_OF_BYTES
  Stream #1:1(rus): Audio: aac (LC), 48000 Hz, stereo, fltp (default) (forced)
      Metadata:
        title           : AniLibria.TV
        BPS             : 192091
        DURATION        : 00:24:30.079000000
        NUMBER_OF_FRAMES: 68910
        NUMBER_OF_BYTES : 35298778
        _STATISTICS_WRITING_APP: mkvmerge v66.0.0 ('Josie') 64-bit
        _STATISTICS_WRITING_DATE_UTC: 2024-12-27 09:49:39
        _STATISTICS_TAGS: BPS DURATION NUMBER_OF_FRAMES NUMBER_OF_BYTES
  Stream #1:2(rus): Subtitle: ass (ssa) (default) (forced)
      Metadata:
        title           : Надписи
        BPS             : 17
        DURATION        : 00:21:55.570000000
        NUMBER_OF_FRAMES: 19
        NUMBER_OF_BYTES : 2807
        _STATISTICS_WRITING_APP: mkvmerge v66.0.0 ('Josie') 64-bit
        _STATISTICS_WRITING_DATE_UTC: 2024-12-27 09:49:39
        _STATISTICS_TAGS: BPS DURATION NUMBER_OF_FRAMES NUMBER_OF_BYTES
  Stream #1:3(rus): Subtitle: ass (ssa)
      Metadata:
        title           : Полные
        BPS             : 100
        DURATION        : 00:24:10.880000000
        NUMBER_OF_FRAMES: 261
        NUMBER_OF_BYTES : 18310
        _STATISTICS_WRITING_APP: mkvmerge v66.0.0 ('Josie') 64-bit
        _STATISTICS_WRITING_DATE_UTC: 2024-12-27 09:49:39
        _STATISTICS_TAGS: BPS DURATION NUMBER_OF_FRAMES NUMBER_OF_BYTES
  Stream #1:4: Attachment: ttf
      Metadata:
        filename        : 10322__2.ttf
        mimetype        : application/x-truetype-font
  Stream #1:5: Attachment: ttf
      Metadata:
        filename        : 10352__0.ttf
        mimetype        : application/x-truetype-font
  Stream #1:6: Attachment: ttf
      Metadata:
        filename        : Aero Matics Display Bold Italic.ttf
        mimetype        : application/x-truetype-font
  Stream #1:7: Attachment: ttf
      Metadata:
        filename        : Aero Matics Display Bold.ttf
        mimetype        : application/x-truetype-font
  Stream #1:8: Attachment: ttf
      Metadata:
        filename        : Aero Matics Display Italic.ttf
        mimetype        : application/x-truetype-font
  Stream #1:9: Attachment: ttf
      Metadata:
        filename        : Aero Matics Display Light Italic.ttf
        mimetype        : application/x-truetype-font
  Stream #1:10: Attachment: ttf
      Metadata:
        filename        : Aero Matics Display Light.ttf
        mimetype        : application/x-truetype-font
  Stream #1:11: Attachment: ttf
      Metadata:
        filename        : Aero_Matics_Display_Regular.ttf
        mimetype        : application/x-truetype-font
  Stream #1:12: Attachment: ttf
      Metadata:
        filename        : BenchNine-Regular.ttf
        mimetype        : application/x-truetype-font
  Stream #1:13: Attachment: ttf
      Metadata:
        filename        : ObelixPro (Regular).ttf
        mimetype        : application/x-truetype-font
  Stream #1:14: Attachment: ttf
      Metadata:
        filename        : OHCRBRG.TTF
        mimetype        : application/x-truetype-font
  Stream #1:15: Attachment: ttf
      Metadata:
        filename        : OpenSanA.ttf
        mimetype        : application/x-truetype-font
  Stream #1:16: Attachment: ttf
      Metadata:
        filename        : Passing Notes.ttf
        mimetype        : application/x-truetype-font
  Stream #1:17: Attachment: ttf
      Metadata:
        filename        : REDOCTOB.otf
        mimetype        : application/x-truetype-font
  Stream #1:18: Attachment: none
      Metadata:
        filename        : simsun_0.ttc
        mimetype        : application/octet-stream
  Stream #1:19: Attachment: ttf
      Metadata:
        filename        : Snowstorm.ttf
        mimetype        : application/x-truetype-font
  Stream #1:20: Attachment: ttf
      Metadata:
        filename        : TEMPSITC.TTF
        mimetype        : application/x-truetype-font
  Stream #1:21: Attachment: ttf
      Metadata:
        filename        : TrajanPro3-Bold.otf
        mimetype        : application/x-truetype-font
  Stream #1:22: Attachment: ttf
      Metadata:
        filename        : TrajanPro3-Regular.otf
        mimetype        : application/x-truetype-font
  Stream #1:23: Attachment: ttf
      Metadata:
        filename        : v_BloodyMurder BB_v1.0.ttf
        mimetype        : application/x-truetype-font
  Stream #1:24: Attachment: ttf
      Metadata:
        filename        : v_CCTimSale_v1.11.ttf
        mimetype        : application/x-truetype-font
  Stream #1:25: Attachment: ttf
      Metadata:
        filename        : v_HolyMackerelli_v1.9.ttf
        mimetype        : application/x-truetype-font
  Stream #1:26: Attachment: ttf
      Metadata:
        filename        : v_StraightJacketBB_v1.1.ttf
        mimetype        : application/x-truetype-font
  Stream #1:27: Attachment: ttf
      Metadata:
        filename        : XENI.TTF
        mimetype        : application/x-truetype-font
Stream mapping:
  Stream #0:0 (hevc) -> settb:default
  Stream #1:0 (h264) -> settb:default
  ssim:default -> Stream #0:0 (wrapped_avframe)
  Stream #0:1 -> #0:1 (aac (native) -> pcm_s16le (native))
Output #0, null, to 'pipe:':
  Metadata:
    encoder         : Lavf61.7.100
  Stream #0:0: Video: wrapped_avframe, yuv420p10le(tv, bt709, progressive), 1280x720 [SAR 1:1 DAR 16:9], q=2-31, 200 kb/s, 23.98 fps, 23.98 tbn
      Metadata:
        encoder         : Lavc61.19.100 wrapped_avframe
  Stream #0:1(rus): Audio: pcm_s16le, 48000 Hz, stereo, s16, 1536 kb/s (default) (forced)
      Metadata:
        title           : AniLibria.TV
        _STATISTICS_TAGS: BPS DURATION NUMBER_OF_FRAMES NUMBER_OF_BYTES
        BPS             : 193561
        DURATION        : 00:24:30.079000000
        NUMBER_OF_FRAMES: 68911
        NUMBER_OF_BYTES : 35568765
        _STATISTICS_WRITING_APP: mkvpropedit v66.0.0 ('Josie') 64-bit
        _STATISTICS_WRITING_DATE_UTC: 2025-06-26 16:04:08
        encoder         : Lavc61.19.100 pcm_s16le
frame=  401 fps=0.0 q=-0.0 size=N/A time=00:00:16.72 bitrate=N/A speed=32.5x    frame=  806 fps=787 q=-0.0 size=N/A time=00:00:33.61 bitrate=N/A speed=32.8x    frame= 1278 fps=828 q=-0.0 size=N/A time=00:00:53.30 bitrate=N/A speed=34.5x    frame= 1794 fps=873 q=-0.0 size=N/A time=00:01:14.82 bitrate=N/A speed=36.4x    frame= 2262 fps=876 q=-0.0 size=N/A time=00:01:34.34 bitrate=N/A speed=36.5x    frame= 2525 fps=817 q=-0.0 size=N/A time=00:01:45.31 bitrate=N/A speed=34.1x    frame= 3017 fps=838 q=-0.0 size=N/A time=00:02:05.83 bitrate=N/A speed=34.9x    frame= 3464 fps=839 q=-0.0 size=N/A time=00:02:24.47 bitrate=N/A speed=  35x    frame= 3894 fps=839 q=-0.0 size=N/A time=00:02:42.41 bitrate=N/A speed=  35x    frame= 4216 fps=816 q=-0.0 size=N/A time=00:02:55.84 bitrate=N/A speed=34.1x    frame= 4647 fps=819 q=-0.0 size=N/A time=00:03:13.81 bitrate=N/A speed=34.2x    frame= 5122 fps=828 q=-0.0 size=N/A time=00:03:33.63 bitrate=N/A speed=34.5x    frame= 5639 fps=842 q=-0.0 size=N/A time=00:03:55.19 bitrate=N/A speed=35.1x    frame= 6235 fps=863 q=-0.0 size=N/A time=00:04:20.05 bitrate=N/A speed=  36x    frame= 6723 fps=870 q=-0.0 size=N/A time=00:04:40.40 bitrate=N/A speed=36.3x    frame= 7230 fps=876 q=-0.0 size=N/A time=00:05:01.55 bitrate=N/A speed=36.5x    frame= 7747 fps=884 q=-0.0 size=N/A time=00:05:23.11 bitrate=N/A speed=36.9x    frame= 8260 fps=890 q=-0.0 size=N/A time=00:05:44.51 bitrate=N/A speed=37.1x    frame= 8778 fps=896 q=-0.0 size=N/A time=00:06:06.11 bitrate=N/A speed=37.4x    frame= 9302 fps=903 q=-0.0 size=N/A time=00:06:27.97 bitrate=N/A speed=37.6x    frame= 9857 fps=910 q=-0.0 size=N/A time=00:06:51.11 bitrate=N/A speed=  38x    frame=10382 fps=915 q=-0.0 size=N/A time=00:07:13.01 bitrate=N/A speed=38.2x    frame=10682 fps=900 q=-0.0 size=N/A time=00:07:25.52 bitrate=N/A speed=37.5x    frame=11039 fps=892 q=-0.0 size=N/A time=00:07:40.41 bitrate=N/A speed=37.2x    frame=11398 fps=884 q=-0.0 size=N/A time=00:07:55.39 bitrate=N/A speed=36.9x    frame=11853 fps=885 q=-0.0 size=N/A time=00:08:14.36 bitrate=N/A speed=36.9x    frame=12258 fps=880 q=-0.0 size=N/A time=00:08:31.26 bitrate=N/A speed=36.7x    frame=12668 fps=877 q=-0.0 size=N/A time=00:08:48.36 bitrate=N/A speed=36.6x    frame=13268 fps=888 q=-0.0 size=N/A time=00:09:13.38 bitrate=N/A speed=  37x    frame=13782 fps=890 q=-0.0 size=N/A time=00:09:34.82 bitrate=N/A speed=37.1x    frame=14367 fps=898 q=-0.0 size=N/A time=00:09:59.22 bitrate=N/A speed=37.4x    frame=14939 fps=905 q=-0.0 size=N/A time=00:10:23.08 bitrate=N/A speed=37.7x    frame=15454 fps=907 q=-0.0 size=N/A time=00:10:44.56 bitrate=N/A speed=37.8x    frame=15950 fps=909 q=-0.0 size=N/A time=00:11:05.24 bitrate=N/A speed=37.9x    frame=16456 fps=911 q=-0.0 size=N/A time=00:11:26.35 bitrate=N/A speed=  38x    frame=16974 fps=913 q=-0.0 size=N/A time=00:11:47.95 bitrate=N/A speed=38.1x    frame=17501 fps=917 q=-0.0 size=N/A time=00:12:09.93 bitrate=N/A speed=38.2x    frame=17986 fps=917 q=-0.0 size=N/A time=00:12:30.16 bitrate=N/A speed=38.2x    frame=18463 fps=917 q=-0.0 size=N/A time=00:12:50.06 bitrate=N/A speed=38.3x    frame=18830 fps=912 q=-0.0 size=N/A time=00:13:05.36 bitrate=N/A speed=  38x    frame=19287 fps=911 q=-0.0 size=N/A time=00:13:24.42 bitrate=N/A speed=  38x    frame=19807 fps=913 q=-0.0 size=N/A time=00:13:46.11 bitrate=N/A speed=38.1x    frame=20352 fps=916 q=-0.0 size=N/A time=00:14:08.84 bitrate=N/A speed=38.2x    frame=20911 fps=920 q=-0.0 size=N/A time=00:14:32.16 bitrate=N/A speed=38.4x    frame=21479 fps=925 q=-0.0 size=N/A time=00:14:55.85 bitrate=N/A speed=38.6x    frame=22082 fps=930 q=-0.0 size=N/A time=00:15:21.00 bitrate=N/A speed=38.8x    frame=22614 fps=932 q=-0.0 size=N/A time=00:15:43.19 bitrate=N/A speed=38.9x    frame=23136 fps=933 q=-0.0 size=N/A time=00:16:04.96 bitrate=N/A speed=38.9x    frame=23703 fps=937 q=-0.0 size=N/A time=00:16:28.61 bitrate=N/A speed=39.1x    frame=24306 fps=942 q=-0.0 size=N/A time=00:16:53.76 bitrate=N/A speed=39.3x    frame=24821 fps=943 q=-0.0 size=N/A time=00:17:15.24 bitrate=N/A speed=39.3x    frame=25374 fps=945 q=-0.0 size=N/A time=00:17:38.30 bitrate=N/A speed=39.4x    frame=25956 fps=949 q=-0.0 size=N/A time=00:18:02.58 bitrate=N/A speed=39.6x    frame=26518 fps=951 q=-0.0 size=N/A time=00:18:26.02 bitrate=N/A speed=39.7x    frame=27082 fps=954 q=-0.0 size=N/A time=00:18:49.54 bitrate=N/A speed=39.8x    frame=27651 fps=957 q=-0.0 size=N/A time=00:19:13.27 bitrate=N/A speed=39.9x    frame=28144 fps=957 q=-0.0 size=N/A time=00:19:33.83 bitrate=N/A speed=39.9x    frame=28705 fps=959 q=-0.0 size=N/A time=00:19:57.23 bitrate=N/A speed=  40x    frame=29272 fps=961 q=-0.0 size=N/A time=00:20:20.88 bitrate=N/A speed=40.1x    frame=29841 fps=964 q=-0.0 size=N/A time=00:20:44.61 bitrate=N/A speed=40.2x    frame=30387 fps=965 q=-0.0 size=N/A time=00:21:07.39 bitrate=N/A speed=40.2x    frame=30794 fps=962 q=-0.0 size=N/A time=00:21:24.36 bitrate=N/A speed=40.1x    frame=31304 fps=963 q=-0.0 size=N/A time=00:21:45.63 bitrate=N/A speed=40.2x    frame=31817 fps=963 q=-0.0 size=N/A time=00:22:07.03 bitrate=N/A speed=40.2x    frame=32339 fps=964 q=-0.0 size=N/A time=00:22:28.80 bitrate=N/A speed=40.2x    frame=32769 fps=962 q=-0.0 size=N/A time=00:22:46.74 bitrate=N/A speed=40.1x    frame=33150 fps=958 q=-0.0 size=N/A time=00:23:02.63 bitrate=N/A speed=  40x    frame=33505 fps=955 q=-0.0 size=N/A time=00:23:17.43 bitrate=N/A speed=39.8x    frame=33909 fps=952 q=-0.0 size=N/A time=00:23:34.28 bitrate=N/A speed=39.7x    frame=34375 fps=951 q=-0.0 size=N/A time=00:23:53.72 bitrate=N/A speed=39.7x    frame=34923 fps=953 q=-0.0 size=N/A time=00:24:16.58 bitrate=N/A speed=39.8x    [Parsed_ssim_10 @ 0000017d704330c0] SSIM Y:0.990799 (20.361829) U:0.992147 (21.049883) V:0.992820 (21.438628) All:0.991361 (20.635259)
[out#0/null @ 0000017d70747100] video:15144KiB audio:275644KiB subtitle:0KiB other streams:0KiB global headers:0KiB muxing overhead: unknown
frame=35245 fps=955 q=-0.0 Lsize=N/A time=00:24:30.01 bitrate=N/A speed=39.8x    
